<mxfile host="Electron" agent="Mozilla/5.0 (X11; Linux x86_64) AppleWebKit/537.36 (KHTML, like Gecko) draw.io/28.0.6 Chrome/138.0.7204.100 Electron/37.2.3 Safari/537.36" version="28.0.6">
  <diagram name="Page-1" id="q384LK0lO71CKMr9BBIi">
    <mxGraphModel dx="1258" dy="2099" grid="1" gridSize="10" guides="1" tooltips="1" connect="1" arrows="1" fold="1" page="1" pageScale="1" pageWidth="827" pageHeight="1169" math="0" shadow="0">
      <root>
        <mxCell id="0" />
        <mxCell id="1" parent="0" />
        <mxCell id="OFg8u1EZECshaMwVFx2n-107" value="" style="group" vertex="1" connectable="0" parent="1">
          <mxGeometry x="80" y="160" width="230" height="70" as="geometry" />
        </mxCell>
        <mxCell id="OFg8u1EZECshaMwVFx2n-92" value="Quiz-result" style="swimlane;fontStyle=0;childLayout=stackLayout;horizontal=1;startSize=30;horizontalStack=0;resizeParent=1;resizeParentMax=0;resizeLast=0;collapsible=1;marginBottom=0;whiteSpace=wrap;html=1;container=0;" vertex="1" parent="OFg8u1EZECshaMwVFx2n-107">
          <mxGeometry width="230" height="30" as="geometry" />
        </mxCell>
        <mxCell id="OFg8u1EZECshaMwVFx2n-93" value="" style="rounded=0;whiteSpace=wrap;html=1;container=0;" vertex="1" parent="OFg8u1EZECshaMwVFx2n-107">
          <mxGeometry y="30" width="230" height="40" as="geometry" />
        </mxCell>
        <mxCell id="OFg8u1EZECshaMwVFx2n-95" value="pseudo" style="rounded=0;whiteSpace=wrap;html=1;container=0;" vertex="1" parent="OFg8u1EZECshaMwVFx2n-107">
          <mxGeometry y="30" width="80" height="40" as="geometry" />
        </mxCell>
        <mxCell id="OFg8u1EZECshaMwVFx2n-86" value="Reponse" style="swimlane;fontStyle=0;childLayout=stackLayout;horizontal=1;startSize=30;horizontalStack=0;resizeParent=1;resizeParentMax=0;resizeLast=0;collapsible=1;marginBottom=0;whiteSpace=wrap;html=1;" vertex="1" parent="1">
          <mxGeometry x="610" y="-210" width="230" height="30" as="geometry" />
        </mxCell>
        <mxCell id="OFg8u1EZECshaMwVFx2n-87" value="" style="rounded=0;whiteSpace=wrap;html=1;" vertex="1" parent="1">
          <mxGeometry x="610" y="-180" width="230" height="42" as="geometry" />
        </mxCell>
        <mxCell id="OFg8u1EZECshaMwVFx2n-108" value="" style="group" vertex="1" connectable="0" parent="1">
          <mxGeometry x="920" y="-40" width="230" height="70" as="geometry" />
        </mxCell>
        <mxCell id="OFg8u1EZECshaMwVFx2n-109" value="ClassScore" style="swimlane;fontStyle=0;childLayout=stackLayout;horizontal=1;startSize=30;horizontalStack=0;resizeParent=1;resizeParentMax=0;resizeLast=0;collapsible=1;marginBottom=0;whiteSpace=wrap;html=1;container=0;" vertex="1" parent="OFg8u1EZECshaMwVFx2n-108">
          <mxGeometry width="230" height="30" as="geometry" />
        </mxCell>
        <mxCell id="OFg8u1EZECshaMwVFx2n-110" value="" style="rounded=0;whiteSpace=wrap;html=1;container=0;" vertex="1" parent="OFg8u1EZECshaMwVFx2n-108">
          <mxGeometry y="30" width="230" height="40" as="geometry" />
        </mxCell>
        <mxCell id="OFg8u1EZECshaMwVFx2n-111" value="score" style="rounded=0;whiteSpace=wrap;html=1;container=0;" vertex="1" parent="OFg8u1EZECshaMwVFx2n-108">
          <mxGeometry y="30" width="80" height="40" as="geometry" />
        </mxCell>
        <mxCell id="OFg8u1EZECshaMwVFx2n-119" value="libelé" style="rounded=0;whiteSpace=wrap;html=1;" vertex="1" parent="1">
          <mxGeometry x="610" y="-180" width="80" height="40" as="geometry" />
        </mxCell>
        <mxCell id="OFg8u1EZECshaMwVFx2n-79" value="Question" style="swimlane;fontStyle=0;childLayout=stackLayout;horizontal=1;startSize=30;horizontalStack=0;resizeParent=1;resizeParentMax=0;resizeLast=0;collapsible=1;marginBottom=0;whiteSpace=wrap;html=1;" vertex="1" parent="1">
          <mxGeometry x="80" y="-205" width="230" height="23.68421052631579" as="geometry" />
        </mxCell>
        <mxCell id="OFg8u1EZECshaMwVFx2n-80" value="" style="rounded=0;whiteSpace=wrap;html=1;" vertex="1" parent="1">
          <mxGeometry x="80" y="-181.32" width="230" height="31.32" as="geometry" />
        </mxCell>
        <mxCell id="OFg8u1EZECshaMwVFx2n-82" value="content" style="rounded=0;whiteSpace=wrap;html=1;" vertex="1" parent="1">
          <mxGeometry x="80" y="-181.31684210526316" width="80" height="31.578947368421055" as="geometry" />
        </mxCell>
        <mxCell id="OFg8u1EZECshaMwVFx2n-125" value="" style="endArrow=none;html=1;rounded=0;exitX=1.009;exitY=0.574;exitDx=0;exitDy=0;exitPerimeter=0;entryX=0;entryY=0;entryDx=0;entryDy=0;" edge="1" parent="1" source="OFg8u1EZECshaMwVFx2n-80" target="OFg8u1EZECshaMwVFx2n-119">
          <mxGeometry width="50" height="50" relative="1" as="geometry">
            <mxPoint x="570" y="320" as="sourcePoint" />
            <mxPoint x="760" y="-160" as="targetPoint" />
          </mxGeometry>
        </mxCell>
        <mxCell id="OFg8u1EZECshaMwVFx2n-126" value="Avoir" style="ellipse;whiteSpace=wrap;html=1;" vertex="1" parent="1">
          <mxGeometry x="400" y="-204.99999999999997" width="120" height="80" as="geometry" />
        </mxCell>
        <mxCell id="OFg8u1EZECshaMwVFx2n-127" value="1,N" style="text;html=1;align=center;verticalAlign=middle;resizable=0;points=[];autosize=1;strokeColor=none;fillColor=none;" vertex="1" parent="1">
          <mxGeometry x="310" y="-190" width="40" height="30" as="geometry" />
        </mxCell>
        <mxCell id="OFg8u1EZECshaMwVFx2n-128" value="0,N" style="text;html=1;align=center;verticalAlign=middle;resizable=0;points=[];autosize=1;strokeColor=none;fillColor=none;" vertex="1" parent="1">
          <mxGeometry x="570" y="-208.16" width="40" height="30" as="geometry" />
        </mxCell>
        <mxCell id="OFg8u1EZECshaMwVFx2n-129" value="" style="group" vertex="1" connectable="0" parent="1">
          <mxGeometry x="600" y="142" width="230" height="150" as="geometry" />
        </mxCell>
        <mxCell id="OFg8u1EZECshaMwVFx2n-61" value="Classe" style="swimlane;fontStyle=0;childLayout=stackLayout;horizontal=1;startSize=30;horizontalStack=0;resizeParent=1;resizeParentMax=0;resizeLast=0;collapsible=1;marginBottom=0;whiteSpace=wrap;html=1;container=0;" vertex="1" parent="OFg8u1EZECshaMwVFx2n-129">
          <mxGeometry width="230" height="30" as="geometry" />
        </mxCell>
        <mxCell id="OFg8u1EZECshaMwVFx2n-71" value="" style="rounded=0;whiteSpace=wrap;html=1;container=0;" vertex="1" parent="OFg8u1EZECshaMwVFx2n-129">
          <mxGeometry y="30" width="230" height="120" as="geometry" />
        </mxCell>
        <mxCell id="OFg8u1EZECshaMwVFx2n-75" value="nom" style="rounded=0;whiteSpace=wrap;html=1;container=0;" vertex="1" parent="OFg8u1EZECshaMwVFx2n-129">
          <mxGeometry y="30" width="80" height="40" as="geometry" />
        </mxCell>
        <mxCell id="OFg8u1EZECshaMwVFx2n-76" value="icon" style="rounded=0;whiteSpace=wrap;html=1;container=0;" vertex="1" parent="OFg8u1EZECshaMwVFx2n-129">
          <mxGeometry y="70" width="80" height="40" as="geometry" />
        </mxCell>
        <mxCell id="OFg8u1EZECshaMwVFx2n-77" value="description" style="rounded=0;whiteSpace=wrap;html=1;container=0;" vertex="1" parent="OFg8u1EZECshaMwVFx2n-129">
          <mxGeometry y="110" width="80" height="40" as="geometry" />
        </mxCell>
        <mxCell id="OFg8u1EZECshaMwVFx2n-130" value="" style="endArrow=none;html=1;rounded=0;exitX=0.5;exitY=1;exitDx=0;exitDy=0;" edge="1" parent="1" source="OFg8u1EZECshaMwVFx2n-131">
          <mxGeometry width="50" height="50" relative="1" as="geometry">
            <mxPoint x="770" y="-58" as="sourcePoint" />
            <mxPoint x="725" y="142" as="targetPoint" />
          </mxGeometry>
        </mxCell>
        <mxCell id="OFg8u1EZECshaMwVFx2n-132" value="" style="endArrow=none;html=1;rounded=0;exitX=0.5;exitY=1;exitDx=0;exitDy=0;" edge="1" parent="1" source="OFg8u1EZECshaMwVFx2n-87" target="OFg8u1EZECshaMwVFx2n-131">
          <mxGeometry width="50" height="50" relative="1" as="geometry">
            <mxPoint x="725" y="-138" as="sourcePoint" />
            <mxPoint x="725" y="142" as="targetPoint" />
          </mxGeometry>
        </mxCell>
        <mxCell id="OFg8u1EZECshaMwVFx2n-131" value="Posseder" style="ellipse;whiteSpace=wrap;html=1;" vertex="1" parent="1">
          <mxGeometry x="665" y="-48" width="120" height="80" as="geometry" />
        </mxCell>
        <mxCell id="OFg8u1EZECshaMwVFx2n-133" value="1,N" style="text;html=1;align=center;verticalAlign=middle;resizable=0;points=[];autosize=1;strokeColor=none;fillColor=none;" vertex="1" parent="1">
          <mxGeometry x="730" y="-140" width="40" height="30" as="geometry" />
        </mxCell>
        <mxCell id="OFg8u1EZECshaMwVFx2n-134" value="N,N" style="text;html=1;align=center;verticalAlign=middle;resizable=0;points=[];autosize=1;strokeColor=none;fillColor=none;" vertex="1" parent="1">
          <mxGeometry x="730" y="112" width="40" height="30" as="geometry" />
        </mxCell>
        <mxCell id="OFg8u1EZECshaMwVFx2n-135" value="" style="endArrow=none;html=1;rounded=0;exitX=1;exitY=0.25;exitDx=0;exitDy=0;entryX=0;entryY=0.75;entryDx=0;entryDy=0;" edge="1" parent="1" source="OFg8u1EZECshaMwVFx2n-93" target="OFg8u1EZECshaMwVFx2n-75">
          <mxGeometry width="50" height="50" relative="1" as="geometry">
            <mxPoint x="330" y="194.5" as="sourcePoint" />
            <mxPoint x="778" y="195.5" as="targetPoint" />
          </mxGeometry>
        </mxCell>
        <mxCell id="OFg8u1EZECshaMwVFx2n-136" value="Représenter" style="ellipse;whiteSpace=wrap;html=1;" vertex="1" parent="1">
          <mxGeometry x="380" y="168" width="120" height="80" as="geometry" />
        </mxCell>
        <mxCell id="OFg8u1EZECshaMwVFx2n-137" value="1,1" style="text;html=1;align=center;verticalAlign=middle;resizable=0;points=[];autosize=1;strokeColor=none;fillColor=none;" vertex="1" parent="1">
          <mxGeometry x="550" y="170" width="40" height="30" as="geometry" />
        </mxCell>
        <mxCell id="OFg8u1EZECshaMwVFx2n-138" value="N,1" style="text;html=1;align=center;verticalAlign=middle;resizable=0;points=[];autosize=1;strokeColor=none;fillColor=none;" vertex="1" parent="1">
          <mxGeometry x="310" y="168" width="40" height="30" as="geometry" />
        </mxCell>
        <mxCell id="OFg8u1EZECshaMwVFx2n-139" style="edgeStyle=orthogonalEdgeStyle;rounded=0;orthogonalLoop=1;jettySize=auto;html=1;exitX=0.5;exitY=1;exitDx=0;exitDy=0;" edge="1" parent="1" source="OFg8u1EZECshaMwVFx2n-87" target="OFg8u1EZECshaMwVFx2n-87">
          <mxGeometry relative="1" as="geometry" />
        </mxCell>
        <mxCell id="OFg8u1EZECshaMwVFx2n-140" value="" style="endArrow=none;html=1;rounded=0;entryX=1;entryY=1;entryDx=0;entryDy=0;exitX=0;exitY=0;exitDx=0;exitDy=0;" edge="1" parent="1" source="OFg8u1EZECshaMwVFx2n-109" target="OFg8u1EZECshaMwVFx2n-87">
          <mxGeometry width="50" height="50" relative="1" as="geometry">
            <mxPoint x="580" y="130" as="sourcePoint" />
            <mxPoint x="630" y="80" as="targetPoint" />
          </mxGeometry>
        </mxCell>
        <mxCell id="OFg8u1EZECshaMwVFx2n-141" value="" style="endArrow=none;html=1;rounded=0;entryX=0;entryY=1;entryDx=0;entryDy=0;" edge="1" parent="1" target="OFg8u1EZECshaMwVFx2n-111">
          <mxGeometry width="50" height="50" relative="1" as="geometry">
            <mxPoint x="830" y="140" as="sourcePoint" />
            <mxPoint x="630" y="80" as="targetPoint" />
          </mxGeometry>
        </mxCell>
        <mxCell id="OFg8u1EZECshaMwVFx2n-142" value="N,1" style="text;html=1;align=center;verticalAlign=middle;resizable=0;points=[];autosize=1;strokeColor=none;fillColor=none;" vertex="1" parent="1">
          <mxGeometry x="840" y="-170" width="40" height="30" as="geometry" />
        </mxCell>
        <mxCell id="OFg8u1EZECshaMwVFx2n-143" value="N,1" style="text;html=1;align=center;verticalAlign=middle;resizable=0;points=[];autosize=1;strokeColor=none;fillColor=none;" vertex="1" parent="1">
          <mxGeometry x="830" y="140" width="40" height="30" as="geometry" />
        </mxCell>
      </root>
    </mxGraphModel>
  </diagram>
</mxfile>
